<svg xmlns="http://www.w3.org/2000/svg" width="66" height="28" viewBox="0 0 66 28" fill="none"><script xmlns="">window._wordtune_extension_installed = true;</script>
<path d="M2.10654 8.88584C4.36265 7.11741 7.62519 7.51276 9.39362 9.76888L16.9984 19.4709C18.7669 21.727 18.3715 24.9895 16.1154 26.758C13.8593 28.5264 10.5967 28.1311 8.82831 25.8749L1.2235 16.1729C-0.544925 13.9168 -0.149578 10.6543 2.10654 8.88584Z" fill="#047272"/>
<path d="M12.4674 13.8142L12.4727 13.8208L9.47037 16.1863C8.26849 17.324 6.09873 20.8646 8.33267 25.0558C8.43358 25.2451 8.53666 25.428 8.64163 25.6045L1.15161 16.3211C0.372892 15.3559 -0.00354714 14.1967 0.000613482 13.0462C-0.0233372 11.4862 0.654341 9.93305 1.97397 8.89222L11.6621 1.25082C13.9104 -0.522507 17.1706 -0.137458 18.9439 2.11085C20.7184 4.36066 20.3315 7.62331 18.08 9.39569L12.5245 13.769L12.4674 13.8142Z" fill="#0BA1A8"/>
<path d="M24.2295 21V10.6408H26.0135V13.1539L25.7641 12.8278C25.892 12.4953 26.0583 12.1915 26.2629 11.9165C26.4675 11.6352 26.7041 11.405 26.9727 11.2259C27.2349 11.0341 27.5258 10.887 27.8456 10.7847C28.1717 10.676 28.5042 10.6121 28.8431 10.5929C29.182 10.5673 29.5081 10.5833 29.8215 10.6408V12.5208C29.4826 12.4313 29.1053 12.4057 28.6896 12.4441C28.2804 12.4825 27.9031 12.6136 27.5578 12.8374C27.2317 13.0484 26.9727 13.3042 26.7809 13.6047C26.5954 13.9053 26.4611 14.241 26.378 14.6118C26.2949 14.9763 26.2533 15.3632 26.2533 15.7725V21H24.2295ZM35.0961 21.2878C34.0666 21.2878 33.1617 21.0639 32.3816 20.6163C31.6079 20.1623 31.0036 19.5325 30.5687 18.7267C30.1403 17.9146 29.9261 16.9746 29.9261 15.9067C29.9261 14.7749 30.1371 13.7933 30.5592 12.9621C30.9876 12.1308 31.5823 11.4881 32.3432 11.0341C33.1042 10.5801 33.9898 10.3531 35.0002 10.3531C36.0553 10.3531 36.9537 10.5993 37.6955 11.0917C38.4372 11.5776 38.9904 12.2714 39.3548 13.1731C39.7257 14.0747 39.8728 15.1458 39.7961 16.3863H37.7914V15.6574C37.7786 14.4552 37.5484 13.5663 37.1008 12.9908C36.6595 12.4153 35.9849 12.1276 35.0769 12.1276C34.073 12.1276 33.3184 12.4441 32.8132 13.0772C32.3081 13.7102 32.0555 14.6246 32.0555 15.8204C32.0555 16.9586 32.3081 17.8411 32.8132 18.4678C33.3184 19.088 34.0474 19.3982 35.0002 19.3982C35.6268 19.3982 36.1672 19.2575 36.6212 18.9761C37.0816 18.6884 37.4397 18.2791 37.6955 17.7484L39.6618 18.3718C39.2589 19.2991 38.6483 20.0184 37.8298 20.53C37.0112 21.0352 36.1 21.2878 35.0961 21.2878ZM31.4032 16.3863V14.8229H38.7985V16.3863H31.4032ZM45.5834 21.2878C44.5539 21.2878 43.649 21.0639 42.8689 20.6163C42.0952 20.1623 41.4909 19.5325 41.056 18.7267C40.6276 17.9146 40.4134 16.9746 40.4134 15.9067C40.4134 14.7749 40.6244 13.7933 41.0465 12.9621C41.4749 12.1308 42.0696 11.4881 42.8305 11.0341C43.5915 10.5801 44.4771 10.3531 45.4875 10.3531C46.5426 10.3531 47.441 10.5993 48.1828 11.0917C48.9245 11.5776 49.4777 12.2714 49.8422 13.1731C50.213 14.0747 50.3601 15.1458 50.2834 16.3863H48.2787V15.6574C48.2659 14.4552 48.0357 13.5663 47.5881 12.9908C47.1469 12.4153 46.4722 12.1276 45.5642 12.1276C44.5603 12.1276 43.8057 12.4441 43.3005 13.0772C42.7954 13.7102 42.5428 14.6246 42.5428 15.8204C42.5428 16.9586 42.7954 17.8411 43.3005 18.4678C43.8057 19.088 44.5347 19.3982 45.4875 19.3982C46.1141 19.3982 46.6545 19.2575 47.1085 18.9761C47.5689 18.6884 47.927 18.2791 48.1828 17.7484L50.1491 18.3718C49.7462 19.2991 49.1356 20.0184 48.3171 20.53C47.4986 21.0352 46.5873 21.2878 45.5834 21.2878ZM41.8905 16.3863V14.8229H49.2858V16.3863H41.8905ZM51.668 21V6.90003H53.6727V21H51.668ZM60.0925 21.2878C59.0566 21.2878 58.1582 21.0544 57.3972 20.5876C56.6363 20.1207 56.048 19.4781 55.6323 18.6596C55.2231 17.8347 55.0184 16.8851 55.0184 15.8108C55.0184 14.7301 55.2295 13.7806 55.6515 12.9621C56.0735 12.1372 56.665 11.4977 57.426 11.0437C58.1869 10.5833 59.0758 10.3531 60.0925 10.3531C61.1284 10.3531 62.0269 10.5865 62.7878 11.0533C63.5488 11.5201 64.1371 12.1627 64.5527 12.9812C64.9683 13.7997 65.1762 14.7429 65.1762 15.8108C65.1762 16.8915 64.9652 17.8443 64.5431 18.6692C64.1275 19.4877 63.5392 20.1303 62.7782 20.5971C62.0173 21.0576 61.122 21.2878 60.0925 21.2878ZM60.0925 19.3982C61.0837 19.3982 61.8222 19.0656 62.3082 18.4006C62.8006 17.7292 63.0468 16.8659 63.0468 15.8108C63.0468 14.7301 62.7974 13.8669 62.2986 13.221C61.8062 12.5688 61.0709 12.2427 60.0925 12.2427C59.4211 12.2427 58.868 12.3961 58.4331 12.7031C57.9983 13.0036 57.6754 13.4225 57.4644 13.9596C57.2533 14.4904 57.1478 15.1074 57.1478 15.8108C57.1478 16.8979 57.3972 17.7676 57.896 18.4198C58.3948 19.072 59.1269 19.3982 60.0925 19.3982Z" fill="#354545"/>
</svg>

